<svg xmlns="http://www.w3.org/2000/svg" version="1.1" xmlns:xlink="http://www.w3.org/1999/xlink" xmlns:svgjs="http://svgjs.dev/svgjs" width="1000" height="1000" viewBox="0 0 1000 1000"><rect width="1000" height="1000" fill="#ffffff"></rect><g transform="matrix(0.7,0,0,0.7,150,150.00000507894572)"><svg viewBox="0 0 280 280" data-background-color="#1b4571" preserveAspectRatio="xMidYMid meet" height="1000" width="1000" xmlns="http://www.w3.org/2000/svg" xmlns:xlink="http://www.w3.org/1999/xlink"><g id="tight-bounds" transform="matrix(1,0,0,1,0,4.851866322042042e-7)"><svg viewBox="0 0 280 280" height="280" width="280"><g><svg viewBox="0 0 280 280" height="280" width="280"><g transform="matrix(1,0,0,1,60.80404050710668,112.39003175426174)"><svg viewBox="0 0 158.39191898578665 55.2199364914765" height="55.2199364914765" width="158.39191898578665"><g><svg viewBox="0 0 158.39191898578665 55.2199364914765" height="55.2199364914765" width="158.39191898578665"><g><svg viewBox="0 0 265.4934054463691 92.55856663350286" height="55.2199364914765" width="158.39191898578665"><g transform="matrix(1,0,0,1,0,12.792102913892222)"><svg viewBox="0 0 158.39191898578665 66.97436080571842" height="66.97436080571842" width="158.39191898578665"><g id="textblocktransform"><svg viewBox="0 0 158.39191898578665 66.97436080571842" height="66.97436080571842" width="158.39191898578665" id="textblock"><g><svg viewBox="0 0 158.39191898578665 66.97436080571842" height="66.97436080571842" width="158.39191898578665"><g transform="matrix(1,0,0,1,0,0)"><svg width="158.39191898578665" viewBox="2.450000047683716 -34.25 81 34.25" height="66.97436080571842" data-palette-color="#ffffff"><path d="M24.6-25.6L24.6-7.5Q24.6-4.65 23.9-2.98 23.2-1.3 21.98-0.65 20.75 0 18.75 0L18.75 0Q15.8 0 14.48-1.58 13.15-3.15 13.1-7.15L13.1-7.15 13-25.6 8.75-25.6Q5.6-25.6 4.03-26.6 2.45-27.6 2.45-30.15L2.45-30.15Q2.45-31.7 3.08-32.6 3.7-33.5 4.95-33.88 6.2-34.25 8.3-34.25L8.3-34.25 29.7-34.25Q32.5-34.25 33.75-33.25 35-32.25 35-29.8L35-29.8Q35-28.15 34.27-27.23 33.55-26.3 32.35-25.95 31.15-25.6 29.25-25.6L29.25-25.6 24.6-25.6ZM51.85-28.7L51.85-7.5Q51.85-3.6 50.4-1.8 48.95 0 46 0L46 0Q43.1 0 41.72-1.55 40.35-3.1 40.35-7.1L40.35-7.1 40.35-28.25Q40.35-34.25 46-34.25L46-34.25Q48.9-34.25 50.37-33.15 51.85-32.05 51.85-28.7L51.85-28.7ZM77.7 0L64.65 0Q62.34-0.05 60.95-0.73 59.55-1.4 58.84-2.95 58.15-4.5 58.15-7.1L58.15-7.1 58.15-28.25Q58.15-30.9 59.7-32.58 61.25-34.25 63.8-34.25L63.8-34.25Q66.8-34.25 68.22-33.15 69.65-32.05 69.65-28.7L69.65-28.7 69.65-8.65 78.2-8.65Q81.09-8.65 82.27-7.8 83.45-6.95 83.45-4.3L83.45-4.3Q83.45-1.6 82.09-0.8 80.75 0 77.7 0L77.7 0Z" opacity="1" transform="matrix(1,0,0,1,0,0)" fill="#000000" class="wordmark-text-0" data-fill-palette-color="primary" id="text-0"></path></svg></g></svg></g></svg></g></svg></g><g transform="matrix(1,0,0,1,174.20295818735744,0)"><svg viewBox="0 0 91.29044725901164 92.55856663350286" height="92.55856663350286" width="91.29044725901164"><g><svg xmlns="http://www.w3.org/2000/svg" xmlns:xlink="http://www.w3.org/1999/xlink" version="1.1" viewBox="25.610794067382812 24.95999526977539 206.76580810546875 209.63800048828125" x="0" y="0" height="92.55856663350286" width="91.29044725901164" class="icon-icon-0" data-fill-palette-color="accent" id="icon-0"><path d="M224.64 130.125c2.585-4.787 5.274-11.597 5.53-19.456 0.256-8.192-2.125-19.507-13.773-29.722 2.611-9.165 2.893-21.299-5.913-30.387-4.736-4.889-11.546-10.471-22.221-10.471-2.637 0-5.351 0.358-8.115 1.05-2.918-4.659-7.603-9.754-14.925-13.184-4.173-1.971-8.986-2.995-13.875-2.995-5.555 0-13.491 1.305-22.016 6.912-6.016-2.663-15.667-5.888-27.187-5.888-11.136 0-21.785 2.944-31.642 8.755-19.353 11.392-28.288 30.745-26.599 57.651-6.4 3.123-13.107 9.139-16.512 19.712-3.738 11.597-1.511 24.653 5.913 35.814-1.715 9.242-1.357 22.784 7.552 32.691 7.219 8.038 17.511 12.16 30.617 12.262 2.125 9.011 7.424 21.453 20.505 28.441 6.835 3.635 13.696 5.427 20.941 5.427 8.986 0 16.768-2.765 23.654-5.248 5.018 2.227 13.696 5.274 23.424 5.274 9.984 0 27.494-3.507 37.248-25.856 9.113-3.123 26.649-11.059 32.41-27.392 4.327-12.441 4.071-29.696-5.018-43.392zM219.929 170.112c-5.811 16.487-30.464 22.425-30.464 22.425-6.502 18.995-18.585 23.987-29.542 23.987-12.109 0-22.784-6.119-22.784-6.119-7.731 2.637-15.565 6.093-24.32 6.093-5.017 0-10.343-1.126-16.128-4.224-16.486-8.806-16.538-30.208-16.538-30.208-2.995 0.384-5.76 0.563-8.294 0.563-11.623 0-18.867-3.738-23.501-8.857-9.831-10.957-4.071-28.058-4.071-28.058-9.037-10.88-9.907-22.323-7.27-30.464 4.839-15.001 17.792-15.488 17.792-15.513-3.2-23.117 0.282-44.109 20.736-56.166 9.319-5.478 18.432-7.322 26.445-7.322 16.384 0 28.237 7.68 28.237 7.68 7.245-6.323 14.643-8.704 20.966-8.704 3.609 0 6.861 0.768 9.549 2.023 11.546 5.427 13.85 16.947 13.85 16.947 5.401-2.765 9.831-3.84 13.542-3.84 6.938 0 11.367 3.763 14.874 7.373 9.933 10.24 0.896 26.727 0.896 26.727 12.697 8.269 16.179 17.715 15.923 25.933-0.358 11.418-7.911 20.403-7.911 20.403 12.16 12.135 11.417 29.671 8.013 39.322z" fill="#000000" data-fill-palette-color="accent"></path><path d="M43.469 226.918c0 4.242-3.438 7.68-7.68 7.68s-7.68-3.439-7.68-7.68c0-4.242 3.439-7.68 7.68-7.68s7.68 3.439 7.68 7.68z" fill="#000000" data-fill-palette-color="accent"></path><path d="M58.855 196.301c-8.499 0-15.36 6.887-15.36 15.36s6.886 15.36 15.36 15.36c8.474 0 15.36-6.887 15.36-15.36s-6.861-15.36-15.36-15.36zM62.489 215.296c-0.947 0.947-2.202 1.485-3.635 1.511-1.434 0-2.688-0.563-3.635-1.511s-1.485-2.202-1.511-3.635c0-1.434 0.563-2.688 1.511-3.635s2.202-1.485 3.635-1.511c1.434 0 2.688 0.563 3.635 1.511s1.485 2.202 1.511 3.635c-0.026 1.434-0.589 2.688-1.511 3.635z" fill="#000000" data-fill-palette-color="accent"></path></svg></g></svg></g></svg></g></svg></g></svg></g><g><path d="M15.618 89.037l13.74 5.204c1.44 0.545 2.515 1.155 3.224 1.828 0.716 0.676 1.121 1.386 1.216 2.131 0.094 0.745-0.051 1.624-0.434 2.635v0c-0.564 1.489-1.37 2.419-2.419 2.789-1.054 0.367-2.598 0.18-4.63-0.562v0l-14.029-5.228-1.224 3.23c-0.604 1.595-1.308 2.694-2.111 3.298-0.81 0.602-1.86 0.658-3.151 0.169v0c-0.782-0.296-1.34-0.688-1.673-1.176-0.339-0.49-0.483-1.084-0.432-1.782 0.047-0.706 0.273-1.593 0.677-2.66v0l6.149-16.235c0.536-1.415 1.178-2.343 1.927-2.782 0.742-0.443 1.734-0.429 2.976 0.041v0c0.832 0.315 1.414 0.745 1.747 1.289 0.327 0.542 0.465 1.152 0.414 1.829-0.057 0.674-0.267 1.492-0.631 2.454v0z" fill="#000000" data-fill-palette-color="accent"></path><path d="M147.666 4.506l0.013 17.201c0.002 2.11-0.389 3.65-1.171 4.62-0.789 0.976-1.98 1.465-3.572 1.466v0c-1.573 0.001-2.731-0.416-3.475-1.252-0.744-0.842-1.117-2.345-1.119-4.508v0l-0.013-17.162c-0.003-3.245 1.526-4.869 4.585-4.871v0c1.566-0.001 2.748 0.296 3.545 0.893 0.803 0.59 1.206 1.794 1.207 3.613z" fill="#000000" data-fill-palette-color="accent"></path><path d="M250.704 109.176l-3.842-9.859c-0.428-1.172-0.61-2.177-0.545-3.014 0.065-0.837 0.419-1.584 1.061-2.24 0.648-0.658 1.627-1.243 2.938-1.754v0l15.99-6.232c1.336-0.521 2.576-0.555 3.72-0.104 1.151 0.449 1.977 1.316 2.478 2.603v0c0.59 1.515 0.747 2.739 0.47 3.673-0.271 0.932-1.253 1.728-2.947 2.388v0l-15.155 5.907 2.519 6.464c0.569 1.459 0.755 2.569 0.56 3.329-0.195 0.76-0.961 1.4-2.296 1.921v0c-1.367 0.533-2.383 0.537-3.051 0.013-0.667-0.524-1.3-1.555-1.9-3.095z" fill="#000000" data-fill-palette-color="accent"></path><path d="M36.362 191.564l-13.695 5.183c-1.44 0.545-2.649 0.8-3.627 0.766-0.978-0.034-1.749-0.3-2.313-0.796-0.561-0.49-1.034-1.241-1.416-2.252v0c-0.564-1.49-0.574-2.717-0.031-3.682 0.541-0.971 1.815-1.851 3.823-2.639v0l13.937-5.359-1.22-3.221c-0.601-1.589-0.801-2.876-0.598-3.861 0.202-0.985 0.949-1.721 2.239-2.21v0c0.782-0.296 1.46-0.371 2.033-0.226 0.573 0.145 1.071 0.496 1.494 1.052 0.432 0.56 0.849 1.371 1.251 2.433v0l6.126 16.19c0.536 1.415 0.671 2.531 0.405 3.348-0.269 0.826-1.022 1.472-2.256 1.94v0c-0.832 0.315-1.55 0.377-2.154 0.187-0.604-0.19-1.111-0.555-1.521-1.095-0.402-0.536-0.784-1.285-1.149-2.248v0z" fill="#000000" data-fill-palette-color="accent"></path><path d="M147.661 256.78l-0.013 17.152c-0.002 2.104-0.394 3.643-1.179 4.617-0.784 0.968-1.969 1.452-3.555 1.451v0c-1.566-0.001-2.721-0.42-3.463-1.257-0.743-0.837-1.113-2.334-1.111-4.49v0l0.014-17.112c0.003-3.238 1.53-4.857 4.582-4.854v0c1.56 0.001 2.737 0.301 3.534 0.899 0.796 0.591 1.193 1.789 1.191 3.594z" fill="#000000" data-fill-palette-color="accent"></path><path d="M268.68 186.312l-3.832 9.842c-0.475 1.147-1.019 2.003-1.631 2.57-0.615 0.573-1.38 0.883-2.296 0.932-0.916 0.049-2.027-0.18-3.332-0.688v0l-15.946-6.209c-1.336-0.52-2.272-1.333-2.81-2.44-0.538-1.107-0.557-2.3-0.059-3.58v0c0.588-1.509 1.299-2.514 2.135-3.014 0.83-0.503 2.086-0.427 3.768 0.228v0l15.12 5.887 2.51-6.447c0.566-1.453 1.178-2.394 1.836-2.821 0.655-0.421 1.648-0.373 2.977 0.144v0c1.361 0.53 2.111 1.21 2.25 2.04 0.137 0.837-0.093 2.022-0.69 3.556z" fill="#000000" data-fill-palette-color="accent"></path><path d="M4.226 144.254c0-5.863 4.753-10.617 10.617-10.617 5.863 0 10.617 4.753 10.617 10.617 0 5.863-4.753 10.617-10.617 10.617-5.863 0-10.617-4.753-10.617-10.617z" fill="#000000" data-fill-palette-color="accent"></path><path d="M255.082 144.254c0-5.863 4.753-10.617 10.616-10.617 5.863 0 10.617 4.753 10.617 10.617 0 5.863-4.753 10.617-10.617 10.617-5.863 0-10.617-4.753-10.616-10.617z" fill="#000000" data-fill-palette-color="accent"></path></g></svg></g><defs></defs></svg><rect width="280" height="280" fill="none" stroke="none" visibility="hidden"></rect></g></svg></g></svg>